<svg width="110" height="98" viewBox="0 0 110 98" fill="none" xmlns="http://www.w3.org/2000/svg">
<g id="Group">
<path id="Vector" fill-rule="evenodd" clip-rule="evenodd" d="M7.53425 0C3.3732 0 0 3.37508 0 7.53846V10.6356H44L39.8956 4.18701C38.2358 1.57909 35.3597 0 32.2696 0H7.53425ZM102.466 10.6356H0V36.4651H110V18.1741C110 14.0108 106.627 10.6356 102.466 10.6356Z" fill="#FFBE78"/>
<path id="Vector_2" d="M102.466 21.1892H7.53425C3.3732 21.1892 0 24.5679 0 28.7357V90.4535C0 94.6213 3.3732 98 7.53425 98H102.466C106.627 98 110 94.6213 110 90.4535V28.7357C110 24.5679 106.627 21.1892 102.466 21.1892Z" fill="#FFF4E8"/>
</g>
</svg>
